<svg width="348" height="77" viewBox="0 0 348 77" fill="none" xmlns="http://www.w3.org/2000/svg">
<g fill="#8a96b5">
<path d="M308.869 0H221.327C220.621 0 219.969 0 219.263 0C219.045 0 218.828 0 218.61 0H131.068C130.362 0 129.71 0 129.004 0C128.786 0 128.569 0 128.406 0H41.4072C37.3317 0 33.4735 0.16302 30.9739 0.706422C13.259 4.12985 0 19.7255 0 38.5272C0 55.9704 11.4658 70.6965 27.3331 75.4241C27.4418 75.4785 27.5505 75.4785 27.6048 75.5328C27.9308 75.6415 28.3112 75.7502 28.6373 75.8045C31.8977 76.674 35.3211 77 42.1136 77H127.754C127.971 77 128.188 77 128.406 77C128.895 77 129.384 77 129.873 76.9457C130.471 76.9457 131.068 76.9457 131.721 76.9457H217.904C218.121 76.9457 218.339 76.9457 218.556 76.9457C218.991 76.9457 219.426 76.9457 219.86 76.8913C220.512 76.8913 221.164 76.8913 221.925 76.8913H308.109C308.326 76.8913 308.543 76.8913 308.761 76.8913C330.008 76.8913 347.288 59.6655 347.288 38.3641C347.397 17.2258 330.116 0 308.869 0ZM38.7445 73.5766C19.3451 73.5766 3.64079 57.8723 3.64079 38.4728C3.64079 19.0734 19.3451 3.31475 38.7445 3.31475C58.144 3.31475 73.8483 19.0191 73.8483 38.4185C73.8483 57.8179 58.144 73.5766 38.7445 73.5766ZM127.808 73.5766H54.9922C68.1969 67.4361 77.4347 54.0141 77.4347 38.5272C77.4347 22.9859 68.1969 9.56387 54.8836 3.42343H124.982H128.406C147.751 3.42343 163.51 19.1821 163.51 38.4728C163.51 46.2978 160.901 53.5794 156.554 59.3938C156.5 59.4481 156.445 59.5025 156.391 59.6111C156.119 59.9915 155.848 60.3176 155.522 60.6979C155.359 60.861 155.195 61.0783 155.087 61.2414C154.869 61.4587 154.706 61.6761 154.489 61.9478C154.217 62.2195 153.946 62.4912 153.728 62.7629C153.62 62.8716 153.511 62.9802 153.402 63.0889C153.022 63.4693 152.641 63.8497 152.261 64.1757C146.121 69.8271 138.024 73.3592 129.058 73.4679V73.5222C128.84 73.5222 128.623 73.5222 128.46 73.5222C128.188 73.5766 128.025 73.5766 127.808 73.5766ZM218.013 73.5766H144.654C157.858 67.4361 167.096 54.0141 167.096 38.5272C167.096 22.9859 157.858 9.56387 144.545 3.42343H215.187H218.61C237.956 3.42343 253.714 19.1821 253.714 38.4728C253.714 51.7318 246.324 63.2519 235.456 69.2294C235.293 69.338 235.076 69.4467 234.858 69.5554C234.586 69.7184 234.315 69.8271 234.043 69.9901C233.663 70.1531 233.282 70.3705 232.902 70.5335C232.793 70.5879 232.739 70.5879 232.63 70.6422C228.5 72.4354 223.99 73.4679 219.263 73.5222V73.5766C219.045 73.5766 218.828 73.5766 218.61 73.5766C218.393 73.5766 218.23 73.5766 218.013 73.5766ZM308.869 73.5766C308.652 73.5766 308.435 73.5766 308.272 73.5766H234.967C248.171 67.4361 257.409 54.0141 257.409 38.5272C257.409 22.9859 248.171 9.56387 234.858 3.42343H305.5H308.924C328.269 3.42343 344.027 19.1821 344.027 38.4728C343.973 57.8723 328.215 73.5766 308.869 73.5766Z" />
<path d="M82.706 11.8457H81.4019V20.5945H82.706V11.8457Z" />
<path d="M86.6724 16.6279C88.1939 17.0626 88.7373 17.3343 88.7373 18.2038C88.7373 18.5842 88.6286 18.8559 88.3569 19.0732C87.9765 19.4536 87.2701 19.5623 86.5093 19.5623C85.7486 19.5623 84.9335 19.4536 84.4444 19.3993L84.2814 20.4861C85.0422 20.5948 85.9116 20.7578 86.781 20.7578C87.7048 20.7578 88.5743 20.5947 89.172 20.1057C89.7698 19.671 90.0415 19.0189 90.0415 18.2038C90.0415 16.6823 89.0633 16.0845 87.6505 15.6498C86.1833 15.2151 85.5312 14.9434 85.5312 14.0739C85.5312 13.7479 85.6399 13.4762 85.9659 13.2588C86.292 13.0415 86.8897 12.9328 87.4875 12.9328C88.1939 12.9328 89.009 13.0415 89.4981 13.0958L89.6611 12.009C88.9003 11.846 88.0309 11.7373 87.2701 11.7373C86.5093 11.7373 85.6942 11.846 85.0965 12.335C84.5531 12.7698 84.2271 13.3132 84.2271 14.0739C84.2271 15.5411 85.2052 16.1932 86.6724 16.6279Z" />
<path d="M94.8236 20.7578C97.4863 20.7578 98.5731 19.2362 98.5731 16.2475C98.5731 13.3132 97.4319 11.7373 94.8236 11.7373C92.1609 11.7373 91.0741 13.2588 91.0741 16.2475C91.0198 19.1819 92.1609 20.7578 94.8236 20.7578ZM94.8236 12.8784C96.5625 12.8784 97.2689 13.9109 97.2689 16.1932C97.2689 18.4755 96.5625 19.5079 94.8236 19.5079C93.0847 19.5079 92.3783 18.4755 92.3783 16.1932C92.3783 13.9109 93.0304 12.8784 94.8236 12.8784Z" />
<path d="M103.735 11.8457H102.648L99.2793 20.5945H100.366L103.735 11.8457Z" />
<path d="M106.181 11.8457H104.876V20.5945H106.181V11.8457Z" />
<path d="M113.191 19.4533H109.332V16.682H112.484V15.5408H109.332V13.0412H113.191V11.8457H108.028V20.5945H113.191V19.4533Z" />
<path d="M117.755 20.7581C118.733 20.7581 119.82 20.4864 120.527 20.106L120.146 19.0736C119.44 19.3453 118.625 19.617 117.755 19.617C116.995 19.617 116.288 19.3996 115.853 18.7475C115.473 18.2041 115.364 17.389 115.364 16.3022C115.364 15.1611 115.527 14.346 115.962 13.7482C116.397 13.1505 117.158 12.9875 118.027 12.9875C118.733 12.9875 119.549 13.0418 120.092 13.1505L120.201 12.0637C119.549 11.9007 118.733 11.792 117.918 11.792C116.777 11.792 115.69 12.0637 114.984 12.8788C114.386 13.6396 114.006 14.7264 114.006 16.2479C114.006 17.6607 114.278 18.7475 114.821 19.5083C115.527 20.4321 116.614 20.7581 117.755 20.7581Z" />
<path d="M83.6292 26.4634C84.553 26.4634 85.3681 26.8438 85.3681 27.9306C85.3681 29.3978 83.6292 31.028 81.2382 33.1472V34.1797H86.8353V33.0386H82.9228C84.7703 31.4627 86.6722 29.8325 86.6722 27.9306C86.6722 26.1917 85.4768 25.3223 83.7379 25.3223C82.7597 25.3223 81.7273 25.594 81.0752 25.92L81.4556 26.9525C81.999 26.7351 82.8684 26.4634 83.6292 26.4634Z" />
<path d="M89.1722 34.1804H90.585C91.2914 31.1917 92.2152 29.0181 93.6281 26.5184V25.4316H87.9224V26.5728H92.2696C90.8567 29.0724 89.9329 31.246 89.1722 34.1804Z" />
<path d="M97.8124 25.3223C95.2584 25.3223 94.6606 26.8981 94.6606 29.8325C94.6606 32.7669 95.2584 34.3427 97.8124 34.3427C100.366 34.3427 100.964 32.7669 100.964 29.8325C100.964 26.8981 100.366 25.3223 97.8124 25.3223ZM97.8124 33.2016C96.0735 33.2016 95.9648 31.8974 95.9648 29.8325C95.9648 27.7676 96.0735 26.4634 97.8124 26.4634C99.5513 26.4634 99.6599 27.7676 99.6599 29.8325C99.6599 31.8974 99.5513 33.2016 97.8124 33.2016Z" />
<path d="M102.268 29.8325C102.268 32.7669 102.866 34.3427 105.42 34.3427C107.974 34.3427 108.572 32.7669 108.572 29.8325C108.572 26.8981 107.974 25.3223 105.42 25.3223C102.866 25.3223 102.268 26.8981 102.268 29.8325ZM107.267 29.8325C107.267 31.8974 107.159 33.2016 105.42 33.2016C103.681 33.2016 103.572 31.8974 103.572 29.8325C103.572 27.7676 103.681 26.4634 105.42 26.4634C107.159 26.4634 107.267 27.7676 107.267 29.8325Z" />
<path d="M112.538 34.1804V25.4316H111.343L109.006 26.5728L109.387 27.4422L111.234 26.7901V34.1804H112.538Z" />
<path d="M81.999 39.0166H81.0752V45.3201H81.999V39.0166Z" />
<path d="M87.0532 45.3201V42.277C87.0532 41.2989 86.5642 40.7012 85.5317 40.7012C84.9883 40.7012 84.4993 40.9185 84.1732 41.1902L84.1189 40.7555H83.4668V45.2657H84.3362V41.7336C84.6623 41.5706 84.9883 41.4619 85.423 41.4619C85.9121 41.4619 86.1838 41.7336 86.1838 42.3314V45.3201H87.0532Z" />
<path d="M88.5201 45.3196H89.3895V41.5158H90.3677V40.7551H89.3895V40.3747C89.3895 40.103 89.4439 39.8856 89.5526 39.7769C89.6612 39.6683 89.8243 39.6139 90.0416 39.6139C90.2046 39.6139 90.422 39.6139 90.6394 39.6139L90.6937 38.8532C90.4763 38.8532 90.259 38.7988 90.0416 38.7988C89.5526 38.7988 89.1722 38.8532 88.9005 39.1249C88.6831 39.3422 88.5744 39.7226 88.5744 40.2117V40.7007L87.9224 40.7551V41.4072H88.5744V45.3196H88.5201Z" />
<path d="M95.0407 43.0915C95.0407 42.2764 94.8777 41.6243 94.443 41.2439C94.1169 40.9179 93.6279 40.7549 93.0301 40.7549C92.378 40.7549 91.9433 40.9179 91.6173 41.2439C91.1826 41.6243 91.0195 42.2764 91.0195 43.0915C91.0195 43.9066 91.1826 44.5587 91.6173 44.9391C91.9433 45.2651 92.4324 45.4281 93.0301 45.4281C93.6822 45.4281 94.1169 45.2651 94.443 44.9391C94.8777 44.5587 95.0407 43.9066 95.0407 43.0915ZM93.8452 44.3413C93.6822 44.5587 93.4105 44.6674 93.0301 44.6674C92.7041 44.6674 92.378 44.5587 92.215 44.3413C91.9977 44.0696 91.889 43.6349 91.889 43.0915C91.889 42.5481 91.9977 42.1134 92.215 41.8417C92.378 41.6243 92.6497 41.5156 93.0301 41.5156C93.3562 41.5156 93.6822 41.6243 93.8452 41.8417C94.0626 42.1134 94.1713 42.5481 94.1713 43.0915C94.1713 43.6349 94.0626 44.0696 93.8452 44.3413Z" />
<path d="M98.5729 41.57L98.6272 40.7549C98.4642 40.7549 98.3555 40.7549 98.2468 40.7549C97.7034 40.7549 97.2687 40.9179 96.8883 41.407H96.834L96.7253 40.8636H96.0732V45.3738H96.9427V41.8417C97.2687 41.57 97.6491 41.5156 98.0295 41.5156C98.1925 41.5156 98.3555 41.5156 98.5729 41.57Z" />
<path d="M102.92 45.3201V42.3857C102.92 42.2227 102.92 42.0053 102.866 41.8423C103.192 41.625 103.573 41.5163 103.899 41.5163C104.388 41.5163 104.659 41.788 104.659 42.3314V45.3201H105.529V42.3857C105.529 41.2989 104.985 40.7012 104.007 40.7012C103.464 40.7012 102.975 40.9729 102.594 41.2989C102.377 40.9185 101.942 40.7012 101.399 40.7012C100.801 40.7012 100.366 40.9729 100.04 41.1902L99.9861 40.7555H99.334V45.2657H100.203V41.7336C100.529 41.5706 100.856 41.4619 101.236 41.4619C101.725 41.4619 101.997 41.7336 101.997 42.277V45.2657H102.92V45.3201Z" />
<path d="M108.191 42.6031C107.702 42.6031 107.268 42.7118 106.996 42.9291C106.67 43.2008 106.507 43.5812 106.507 43.9616C106.507 44.7767 107.05 45.3744 108.028 45.3744C108.517 45.3744 109.006 45.2114 109.333 44.8854L109.441 45.2657H110.093V42.1684C110.093 41.625 109.93 41.2446 109.659 41.0272C109.333 40.7555 108.843 40.7012 108.3 40.7012C107.757 40.7012 107.213 40.7555 106.833 40.9185L106.996 41.6793C107.268 41.625 107.811 41.5163 108.246 41.5163C108.626 41.5163 108.898 41.5706 109.061 41.7336C109.169 41.8423 109.224 42.0053 109.224 42.277V42.6574C108.898 42.6574 108.517 42.6031 108.191 42.6031ZM109.224 44.3963C108.952 44.6137 108.572 44.7223 108.246 44.7223C107.757 44.7223 107.485 44.4506 107.485 44.0159C107.485 43.5269 107.811 43.2552 108.463 43.2552C108.735 43.2552 109.061 43.2552 109.278 43.3095V44.3963H109.224Z" />
<path d="M112.647 45.428C113.028 45.428 113.408 45.3193 113.734 45.1563L113.462 44.4498C113.245 44.5585 113.028 44.6129 112.81 44.6129C112.484 44.6129 112.43 44.3955 112.43 44.0695V41.5698H113.68V40.809H112.43V39.5049H111.615L111.56 40.809L110.854 40.8634V41.5155H111.506V44.1238C111.506 44.9932 111.941 45.428 112.647 45.428Z" />
<path d="M115.038 39.0166C114.767 39.0166 114.549 39.234 114.549 39.5057C114.549 39.7774 114.767 39.9947 115.038 39.9947C115.31 39.9947 115.527 39.7774 115.527 39.5057C115.527 39.234 115.31 39.0166 115.038 39.0166Z" />
<path d="M115.472 40.8096H114.603V45.3198H115.472V40.8096Z" />
<path d="M120.581 43.0915C120.581 42.2764 120.418 41.6243 119.983 41.2439C119.657 40.9179 119.168 40.7549 118.57 40.7549C117.972 40.7549 117.483 40.9179 117.157 41.2439C116.723 41.6243 116.56 42.2764 116.56 43.0915C116.56 43.9066 116.723 44.5587 117.157 44.9391C117.483 45.2651 117.972 45.4281 118.57 45.4281C119.168 45.4281 119.657 45.2651 119.983 44.9391C120.363 44.5587 120.581 43.9066 120.581 43.0915ZM119.331 44.3413C119.168 44.5587 118.896 44.6674 118.516 44.6674C118.19 44.6674 117.864 44.5587 117.701 44.3413C117.483 44.0696 117.375 43.6349 117.375 43.0915C117.375 42.5481 117.483 42.1134 117.701 41.8417C117.864 41.6243 118.135 41.5156 118.516 41.5156C118.842 41.5156 119.168 41.6243 119.331 41.8417C119.548 42.1134 119.657 42.5481 119.657 43.0915C119.657 43.6349 119.548 44.0696 119.331 44.3413Z" />
<path d="M124.33 42.3851V45.3738H125.2V42.3308C125.2 41.3526 124.711 40.7549 123.678 40.7549C123.135 40.7549 122.646 40.9722 122.32 41.2439L122.265 40.8092H121.613V45.3195H122.483V41.7873C122.809 41.6243 123.135 41.5156 123.57 41.5156C124.059 41.5156 124.33 41.7873 124.33 42.3851Z" />
<path d="M130.362 42.4393C131.449 42.7654 131.829 42.9827 131.829 43.5805C131.829 43.8522 131.721 44.0695 131.558 44.2326C131.286 44.5043 130.742 44.5586 130.199 44.5586C129.656 44.5586 129.058 44.5043 128.732 44.3956L128.623 45.2107C129.167 45.3194 129.819 45.3737 130.416 45.3737C131.068 45.3737 131.721 45.265 132.155 44.939C132.59 44.6129 132.807 44.1239 132.807 43.5261C132.807 42.4393 132.101 42.0046 131.068 41.6786C130.036 41.3525 129.547 41.1895 129.547 40.5374C129.547 40.2657 129.656 40.1027 129.819 39.9397C130.09 39.7767 130.471 39.7223 130.905 39.7223C131.449 39.7223 131.992 39.7767 132.373 39.8854L132.481 39.1246C131.938 39.0159 131.34 38.9072 130.742 38.9072C130.145 38.9072 129.601 39.0159 129.167 39.3419C128.786 39.6137 128.569 40.0484 128.569 40.5918C128.569 41.6786 129.275 42.1133 130.362 42.4393Z" />
<path d="M135.579 45.4284C136.176 45.4284 136.72 45.2654 137.155 45.048L136.937 44.3416C136.557 44.5046 136.122 44.6133 135.633 44.6133C135.253 44.6133 134.927 44.5046 134.709 44.2873C134.546 44.0699 134.438 43.7439 134.383 43.3635H137.1C137.155 43.1461 137.155 42.9288 137.155 42.6571C137.155 41.4616 136.503 40.6465 135.416 40.6465C134.057 40.6465 133.459 41.7876 133.459 43.0375C133.514 44.6133 134.22 45.4284 135.579 45.4284ZM135.47 41.4616C136.176 41.4616 136.394 42.005 136.394 42.6571H134.492C134.492 42.0593 134.818 41.4616 135.47 41.4616Z" />
<path d="M139.872 45.4284C140.415 45.4284 141.013 45.2654 141.393 45.048L141.176 44.3416C140.796 44.5046 140.415 44.6133 139.98 44.6133C139.22 44.6133 138.839 44.1243 138.839 43.0375C138.839 41.7876 139.274 41.4616 140.143 41.4616C140.47 41.4616 140.85 41.5159 141.176 41.5703L141.23 40.8095C140.85 40.7008 140.415 40.6465 139.98 40.6465C138.894 40.6465 137.916 41.0812 137.916 43.0375C137.916 44.7763 138.676 45.4284 139.872 45.4284Z" />
<path d="M143.838 45.4285C144.382 45.4285 144.871 45.2111 145.197 44.9394L145.251 45.3198H145.903V40.8096H145.034V44.396C144.708 44.559 144.327 44.6677 144.001 44.6677C143.458 44.6677 143.186 44.4504 143.186 43.7983V40.8096H142.317V43.8526C142.262 44.8307 142.806 45.4285 143.838 45.4285Z" />
<path d="M148.077 41.8417C148.403 41.57 148.783 41.5156 149.164 41.5156C149.327 41.5156 149.544 41.5156 149.707 41.57L149.762 40.7549C149.598 40.7549 149.49 40.7549 149.381 40.7549C148.838 40.7549 148.403 40.9179 148.023 41.407H147.968L147.86 40.8636H147.208V45.3738H148.077V41.8417Z" />
<path d="M150.957 39.9947C151.229 39.9947 151.446 39.7774 151.446 39.5057C151.446 39.234 151.229 39.0166 150.957 39.0166C150.685 39.0166 150.468 39.234 150.468 39.5057C150.468 39.7774 150.685 39.9947 150.957 39.9947Z" />
<path d="M151.392 40.8096H150.522V45.3198H151.392V40.8096Z" />
<path d="M152.859 44.1781C152.859 44.9932 153.294 45.428 154 45.428C154.381 45.428 154.761 45.3193 155.087 45.1563L154.815 44.4498C154.598 44.5585 154.381 44.6129 154.163 44.6129C153.837 44.6129 153.783 44.3955 153.783 44.0695V41.5698H155.033V40.809H153.783V39.5049H152.968L152.913 40.809L152.207 40.8634V41.5155H152.859V44.1781Z" />
<path d="M157.369 45.3198C157.206 45.8089 156.989 46.4066 156.717 47.113H157.586C158.293 45.2655 158.999 42.9288 159.488 40.8096H158.565C158.293 42.1137 157.912 43.5266 157.532 44.6134H157.478C157.097 43.4179 156.771 42.1137 156.445 40.8096H155.521C155.956 42.4398 156.391 44.07 156.88 45.3198H157.369Z" />
<path d="M85.531 49.8838L84.0638 54.068H84.0095L82.5423 49.8838H81.1838C81.0751 52.0031 80.9664 54.068 80.9121 56.1872H81.8359C81.8902 54.5027 81.9446 52.7638 82.0533 51.1336H82.1076L83.5204 55.1548H84.5529L85.9657 51.1336H86.0201C86.0744 52.8182 86.1831 54.5027 86.2374 56.1872H87.1612C87.1069 54.068 86.9982 52.0031 86.8895 49.8838H85.531Z" />
<path d="M89.9869 51.5693C89.4435 51.5693 88.9001 51.6237 88.5197 51.7867L88.6828 52.5475C88.9545 52.4931 89.4979 52.3844 89.9326 52.3844C90.313 52.3844 90.5847 52.4388 90.7477 52.6018C90.8564 52.7105 90.9107 52.8735 90.9107 53.1452V53.5256C90.5847 53.5256 90.2586 53.4712 89.9326 53.4712C89.4435 53.4712 89.0088 53.5799 88.7371 53.7973C88.4111 54.069 88.248 54.4494 88.248 54.8297C88.248 55.6448 88.7914 56.2426 89.7696 56.2426C90.2586 56.2426 90.7477 56.0796 91.0737 55.7535L91.1824 56.1339H91.8345V53.0365C91.8345 52.4931 91.6715 52.1127 91.3998 51.8954C91.0194 51.678 90.5303 51.5693 89.9869 51.5693ZM90.9107 55.2645C90.639 55.4818 90.2586 55.5905 89.9326 55.5905C89.4435 55.5905 89.1718 55.3188 89.1718 54.8841C89.1718 54.395 89.4979 54.1233 90.1499 54.1233C90.4217 54.1233 90.7477 54.1233 90.9651 54.1777V55.2645H90.9107Z" />
<path d="M95.1499 51.5693C94.6065 51.5693 94.1174 51.7867 93.7914 52.0584L93.737 51.6237H93.085V56.1339H93.9544V52.6018C94.2804 52.4388 94.6065 52.3301 95.0412 52.3301C95.5303 52.3301 95.802 52.6018 95.802 53.1995V56.1882H96.6714V53.1452C96.6714 52.2214 96.1824 51.5693 95.1499 51.5693Z" />
<path d="M99.3883 51.5693C98.8449 51.5693 98.3015 51.6237 97.9211 51.7867L98.0841 52.5475C98.3558 52.4931 98.8992 52.3844 99.334 52.3844C99.7143 52.3844 99.986 52.4388 100.149 52.6018C100.258 52.7105 100.312 52.8735 100.312 53.1452V53.5256C99.986 53.5256 99.66 53.4712 99.334 53.4712C98.8449 53.4712 98.4102 53.5799 98.1385 53.7973C97.8124 54.069 97.6494 54.4494 97.6494 54.8297C97.6494 55.6448 98.1928 56.2426 99.1709 56.2426C99.66 56.2426 100.149 56.0796 100.475 55.7535L100.584 56.1339H101.236V53.0365C101.236 52.4931 101.073 52.1127 100.801 51.8954C100.421 51.678 99.986 51.5693 99.3883 51.5693ZM100.312 55.2645C100.04 55.4818 99.66 55.5905 99.334 55.5905C98.8449 55.5905 98.5732 55.3188 98.5732 54.8841C98.5732 54.395 98.8992 54.1233 99.5513 54.1233C99.823 54.1233 100.149 54.1233 100.366 54.1777V55.2645H100.312Z" />
<path d="M102.268 53.9603C102.268 55.4275 102.757 56.2969 104.007 56.2969C104.387 56.2969 104.768 56.1339 105.094 55.9709V56.5143C105.094 56.786 105.039 56.949 104.931 57.0577C104.768 57.2207 104.442 57.2751 104.061 57.2751C103.627 57.2751 103.192 57.2207 102.866 57.1664L102.757 57.9271C103.192 57.9815 103.681 58.0902 104.224 58.0902C104.768 58.0902 105.257 57.9815 105.637 57.7098C105.909 57.4924 106.072 57.112 106.072 56.623V51.8954C105.583 51.7324 104.822 51.5693 104.116 51.5693C102.757 51.5693 102.268 52.2758 102.268 53.9603ZM105.094 52.4931V55.3731C104.822 55.5362 104.442 55.5905 104.116 55.5905C103.355 55.5905 103.138 55.0471 103.138 54.0146C103.138 52.9278 103.355 52.3844 104.116 52.3844C104.442 52.3844 104.822 52.4388 105.094 52.4931Z" />
<path d="M108.843 51.5693C107.485 51.5693 106.887 52.7105 106.887 53.9603C106.887 55.4818 107.594 56.2969 108.952 56.2969C109.55 56.2969 110.093 56.1339 110.528 55.9165L110.311 55.2101C109.93 55.3731 109.496 55.4818 109.006 55.4818C108.626 55.4818 108.3 55.3731 108.083 55.1558C107.92 54.9384 107.811 54.6124 107.757 54.232H110.474C110.528 54.0146 110.528 53.7973 110.528 53.5256C110.582 52.3844 109.93 51.5693 108.843 51.5693ZM107.811 53.5799C107.865 52.9278 108.137 52.3844 108.843 52.3844C109.55 52.3844 109.767 52.9278 109.767 53.5799H107.811Z" />
<path d="M116.234 51.5693C115.69 51.5693 115.201 51.841 114.821 52.1671C114.604 51.7867 114.169 51.5693 113.625 51.5693C113.028 51.5693 112.593 51.841 112.267 52.0584L112.213 51.6237H111.561V56.1339H112.43V52.6018C112.756 52.4388 113.082 52.3301 113.462 52.3301C113.952 52.3301 114.223 52.6018 114.223 53.1452V56.1339H115.093V53.2539C115.093 53.0909 115.093 52.8735 115.038 52.7105C115.364 52.4931 115.745 52.3844 116.071 52.3844C116.56 52.3844 116.832 52.6561 116.832 53.1995V56.1882H117.701V53.2539C117.755 52.1671 117.266 51.5693 116.234 51.5693Z" />
<path d="M120.635 51.5693C119.276 51.5693 118.679 52.7105 118.679 53.9603C118.679 55.4818 119.385 56.2969 120.744 56.2969C121.341 56.2969 121.885 56.1339 122.32 55.9165L122.102 55.2101C121.722 55.3731 121.287 55.4818 120.798 55.4818C120.418 55.4818 120.092 55.3731 119.874 55.1558C119.711 54.9384 119.602 54.6124 119.548 54.232H122.265C122.32 54.0146 122.32 53.7973 122.32 53.5256C122.32 52.3844 121.722 51.5693 120.635 51.5693ZM119.548 53.5799C119.602 52.9278 119.874 52.3844 120.581 52.3844C121.287 52.3844 121.504 52.9278 121.504 53.5799H119.548Z" />
<path d="M125.417 51.5693C124.874 51.5693 124.385 51.7867 124.058 52.0584L124.004 51.6237H123.352V56.1339H124.221V52.6018C124.548 52.4388 124.874 52.3301 125.308 52.3301C125.797 52.3301 126.069 52.6018 126.069 53.1995V56.1882H126.939V53.1452C126.993 52.2214 126.449 51.5693 125.417 51.5693Z" />
<path d="M129.492 56.2961C129.873 56.2961 130.253 56.1874 130.579 56.0244L130.308 55.318C130.09 55.4267 129.873 55.481 129.655 55.481C129.329 55.481 129.275 55.2637 129.275 54.9376V52.438H130.525V51.6772H129.275V50.373H128.46L128.406 51.6772L127.699 51.7316V52.3836H128.351V54.992C128.351 55.8614 128.786 56.2961 129.492 56.2961Z" />
<path d="M49.5579 21.1383C50.2643 21.1383 50.8078 20.5949 50.8078 19.8885C50.8078 19.1821 50.2643 18.6387 49.5579 18.6387C48.8515 18.6387 48.3081 19.1821 48.3081 19.8885C48.3081 20.5406 48.8515 21.1383 49.5579 21.1383Z" />
<path d="M44.9937 12.335V18.8014C44.9937 20.2686 45.7001 21.0294 47.2759 21.0294C47.4933 21.0294 47.6563 20.975 47.6563 20.975V19.3992C47.1129 19.3992 46.9499 19.2362 46.9499 18.7471V12.335H44.9937Z" />
<path d="M45.9173 11.0856C46.6237 11.0856 47.1671 10.5422 47.1671 9.83576C47.1671 9.12934 46.6237 8.58594 45.9173 8.58594C45.2109 8.58594 44.6675 9.12934 44.6675 9.83576C44.6675 10.4878 45.2652 11.0856 45.9173 11.0856Z" />
<path d="M40.9183 17.3888C42.0594 17.4975 42.3311 17.8235 42.3311 18.4756C42.3311 19.2364 41.679 19.5624 40.2662 19.5624C39.1794 19.5624 38.2556 19.2907 37.7122 19.0734V20.7036C38.3099 20.9209 39.3424 21.1383 40.5379 21.1383C43.2549 21.1383 44.1787 19.8341 44.1787 18.3669C44.1787 16.7911 43.5266 16.0303 40.9183 15.7586C39.7771 15.6499 39.5054 15.3782 39.5054 14.7805C39.5054 14.0197 40.1575 13.6937 41.1356 13.6937C42.2224 13.6937 43.0375 13.911 43.7439 14.1827V12.4982C43.0919 12.2265 42.2768 12.0635 41.0813 12.0635C38.5816 12.0635 37.6035 13.3133 37.6035 14.7805C37.6579 16.3563 38.3099 17.1171 40.9183 17.3888Z" />
<path d="M38.8533 69.664C38.8533 69.664 57.9267 37.386 58.0353 37.1143H19.5625C19.7255 37.4403 38.8533 69.664 38.8533 69.664Z" />
<path d="M47.8194 23.8008C44.1786 23.8008 40.9182 25.5397 38.9076 28.5284C36.9514 25.5397 33.6909 23.8008 30.0502 23.8008C24.1814 23.8008 19.3995 28.311 19.1821 33.9624H58.5244C58.2527 28.311 53.5794 23.8008 47.8194 23.8008Z" />
<path d="M30.9197 20.2142C31.6804 20.7576 32.5499 21.0836 33.691 21.0836C36.1907 21.0836 37.1145 19.3991 37.1145 16.6277C37.1145 13.8564 36.1907 12.1175 33.691 12.1175C32.8216 12.1175 32.0065 12.3892 31.4087 12.7696V8.04199H29.5068V20.8663H30.648L30.9197 20.2142ZM31.4087 14.2911C31.7348 14.1281 32.3325 13.802 33.2563 13.802C34.9409 13.802 35.2126 15.1062 35.2126 16.6821C35.2126 18.2579 34.9409 19.5621 33.2563 19.5621C32.3325 19.5621 31.7348 19.2361 31.4087 19.073V14.2911Z" />
<path d="M173.399 11.8457H172.095V20.5945H173.399V11.8457Z" />
<path d="M177.421 16.5742C178.942 17.0089 179.431 17.2806 179.431 18.1501C179.431 18.5305 179.323 18.8022 179.051 19.0195C178.67 19.3999 177.964 19.5086 177.203 19.5086C176.442 19.5086 175.627 19.3999 175.138 19.3456L174.975 20.4324C175.736 20.541 176.606 20.7041 177.475 20.7041C178.399 20.7041 179.268 20.541 179.866 20.052C180.409 19.6173 180.735 18.9652 180.735 18.1501C180.735 16.6285 179.757 16.0308 178.344 15.5961C176.932 15.1614 176.225 14.8897 176.225 14.0202C176.225 13.6942 176.334 13.4225 176.66 13.2051C176.986 12.9878 177.584 12.8791 178.181 12.8791C178.888 12.8791 179.703 12.9878 180.192 13.0421L180.355 11.9553C179.594 11.7923 178.725 11.6836 177.964 11.6836C177.203 11.6836 176.388 11.7923 175.79 12.2813C175.247 12.7161 174.975 13.2595 174.975 14.0202C174.921 15.5417 175.899 16.1395 177.421 16.5742Z" />
<path d="M185.517 20.7578C188.18 20.7578 189.266 19.2362 189.266 16.2475C189.266 13.3132 188.125 11.7373 185.517 11.7373C182.854 11.7373 181.767 13.2588 181.767 16.2475C181.713 19.1819 182.854 20.7578 185.517 20.7578ZM185.517 12.8784C187.256 12.8784 187.962 13.9109 187.962 16.1932C187.962 18.4755 187.256 19.5079 185.517 19.5079C183.778 19.5079 183.072 18.4755 183.072 16.1932C183.072 13.9109 183.778 12.8784 185.517 12.8784Z" />
<path d="M194.429 11.8457H193.342L189.973 20.5945H191.06L194.429 11.8457Z" />
<path d="M196.874 11.8457H195.57V20.5945H196.874V11.8457Z" />
<path d="M203.938 19.4533H200.026V16.682H203.232V15.5408H200.026V13.0412H203.938V11.8457H198.722V20.5945H203.938V19.4533Z" />
<path d="M208.449 20.7581C209.427 20.7581 210.514 20.4864 211.22 20.106L210.84 19.0736C210.133 19.3453 209.318 19.617 208.449 19.617C207.688 19.617 206.982 19.3996 206.547 18.7475C206.166 18.2041 206.058 17.389 206.058 16.3022C206.058 15.1611 206.221 14.346 206.655 13.7482C207.09 13.1505 207.851 12.9875 208.72 12.9875C209.427 12.9875 210.242 13.0418 210.785 13.1505L210.894 12.0637C210.242 11.9007 209.427 11.792 208.612 11.792C207.471 11.792 206.384 12.0637 205.677 12.8788C205.08 13.6396 204.699 14.7264 204.699 16.2479C204.699 17.6607 204.971 18.7475 205.514 19.5083C206.221 20.3777 207.308 20.7581 208.449 20.7581Z" />
<path d="M174.324 26.4634C175.247 26.4634 176.062 26.8438 176.062 27.9306C176.062 29.3978 174.324 31.028 171.933 33.1472V34.1797H177.53V33.0386H173.617C175.465 31.4627 177.367 29.8325 177.367 27.9306C177.367 26.1917 176.171 25.3223 174.432 25.3223C173.454 25.3223 172.422 25.594 171.77 25.92L172.15 26.9525C172.693 26.7351 173.563 26.4634 174.324 26.4634Z" />
<path d="M178.779 26.5728H183.127C181.768 29.0724 180.79 31.246 180.029 34.1804H181.442C182.148 31.1917 183.072 29.0181 184.485 26.5184V25.4316H178.779V26.5728Z" />
<path d="M192.092 29.8325C192.092 26.8981 191.495 25.3223 188.941 25.3223C186.387 25.3223 185.789 26.8981 185.789 29.8325C185.789 32.7669 186.387 34.3427 188.941 34.3427C191.44 34.3427 192.092 32.7125 192.092 29.8325ZM187.039 29.8325C187.039 27.7676 187.148 26.4634 188.886 26.4634C190.625 26.4634 190.734 27.7676 190.734 29.8325C190.734 31.8974 190.625 33.2016 188.886 33.2016C187.148 33.2016 187.039 31.8974 187.039 29.8325Z" />
<path d="M193.125 27.4422L194.918 26.7901V34.1804H196.223V25.4316H195.027L192.69 26.5728L193.125 27.4422Z" />
<path d="M199.429 34.1804H200.841C201.548 31.1917 202.472 29.0181 203.884 26.5184V25.4316H198.179V26.5728H202.526C201.113 29.0724 200.189 31.246 199.429 34.1804Z" />
<path d="M173.345 42.9833C174.432 43.3093 174.812 43.5267 174.812 44.1244C174.812 44.3961 174.703 44.6135 174.54 44.7765C174.269 45.0482 173.725 45.1026 173.182 45.1026C172.639 45.1026 172.041 45.0482 171.715 44.9395L171.606 45.7546C172.149 45.8633 172.802 45.9177 173.399 45.9177C174.051 45.9177 174.703 45.809 175.138 45.4829C175.573 45.1569 175.79 44.6678 175.79 44.0701C175.79 42.9833 175.084 42.5486 174.051 42.2225C173.019 41.8965 172.53 41.7335 172.53 41.0814C172.53 40.8097 172.639 40.6467 172.802 40.4836C173.019 40.3206 173.454 40.2663 173.888 40.2663C174.432 40.2663 174.975 40.3206 175.356 40.4293L175.464 39.6685C174.921 39.5599 174.323 39.4512 173.725 39.4512C173.128 39.4512 172.584 39.5599 172.149 39.8859C171.769 40.1576 171.552 40.5923 171.552 41.1357C171.552 42.2225 172.258 42.6572 173.345 42.9833Z" />
<path d="M179.92 44.8846C179.54 45.0476 179.105 45.1563 178.616 45.1563C178.236 45.1563 177.91 45.0476 177.692 44.8302C177.529 44.6129 177.42 44.2868 177.366 43.9065H180.083C180.138 43.6891 180.138 43.4717 180.138 43.2C180.138 42.0046 179.485 41.1895 178.399 41.1895C177.04 41.1895 176.442 42.3306 176.442 43.5804C176.442 45.1019 177.149 45.917 178.507 45.917C179.105 45.917 179.648 45.754 180.083 45.5367L179.92 44.8846ZM178.453 42.0046C179.159 42.0046 179.377 42.548 179.377 43.2H177.475C177.475 42.6023 177.801 42.0046 178.453 42.0046Z" />
<path d="M182.963 45.1563C182.202 45.1563 181.822 44.6672 181.822 43.5804C181.822 42.3306 182.256 42.0046 183.126 42.0046C183.452 42.0046 183.832 42.0589 184.158 42.1132L184.213 41.3525C183.832 41.2438 183.398 41.1895 182.963 41.1895C181.876 41.1895 180.898 41.6242 180.898 43.5804C180.898 45.265 181.659 45.917 182.854 45.917C183.398 45.917 183.995 45.754 184.376 45.5367L184.104 44.8302C183.778 45.0476 183.398 45.1563 182.963 45.1563Z" />
<path d="M185.246 41.3525V44.3956C185.246 45.3737 185.735 45.9715 186.767 45.9715C187.311 45.9715 187.8 45.7541 188.126 45.4824L188.18 45.8628H188.832V41.3525H188.017V44.939C187.691 45.102 187.311 45.2107 186.985 45.2107C186.441 45.2107 186.169 44.9933 186.169 44.3413V41.3525H185.246Z" />
<path d="M192.744 41.2988C192.581 41.2988 192.473 41.2988 192.364 41.2988C191.821 41.2988 191.386 41.4618 191.006 41.9509H190.951L190.843 41.4075H190.19V45.9177H191.06V42.3856C191.386 42.1139 191.766 42.0596 192.147 42.0596C192.31 42.0596 192.527 42.0596 192.69 42.1139L192.744 41.2988Z" />
<path d="M193.94 39.5596C193.669 39.5596 193.451 39.7769 193.451 40.0486C193.451 40.3203 193.669 40.5377 193.94 40.5377C194.212 40.5377 194.429 40.3203 194.429 40.0486C194.429 39.7769 194.212 39.5596 193.94 39.5596Z" />
<path d="M194.375 41.3525H193.505V45.8628H194.375V41.3525Z" />
<path d="M197.744 44.9938C197.527 45.1025 197.309 45.1568 197.092 45.1568C196.766 45.1568 196.712 44.9394 196.712 44.6134V42.1138H197.961V41.353H196.712V40.0488H195.897L195.842 41.353L195.136 41.4073V42.0594H195.788V44.6677C195.788 45.4828 196.223 45.9176 196.929 45.9176C197.309 45.9176 197.69 45.8089 198.016 45.6459L197.744 44.9938Z" />
<path d="M200.569 47.656C201.276 45.8084 201.982 43.4718 202.471 41.3525H201.602C201.33 42.6567 200.95 44.0695 200.569 45.1564H200.515C200.134 43.9609 199.808 42.6567 199.482 41.3525H198.559C198.993 42.9827 199.428 44.613 199.917 45.8628H200.406C200.243 46.3518 200.026 46.9496 199.754 47.656H200.569Z" />
<path d="M209.807 44.7762C209.264 44.9936 208.72 45.1566 208.068 45.1566C207.525 45.1566 207.036 44.9936 206.71 44.5045C206.438 44.0698 206.329 43.5264 206.329 42.7656C206.329 41.9505 206.438 41.3528 206.764 40.9181C207.09 40.4834 207.633 40.3747 208.231 40.3747C208.72 40.3747 209.318 40.429 209.698 40.5377L209.807 39.7226C209.318 39.6139 208.72 39.5596 208.177 39.5596C207.362 39.5596 206.601 39.7226 206.058 40.3747C205.623 40.9181 205.351 41.7332 205.351 42.82C205.351 43.8524 205.568 44.6132 205.949 45.1566C206.438 45.8087 207.199 46.0804 208.014 46.0804C208.72 46.0804 209.481 45.863 210.024 45.5913L209.807 44.7762Z" />
<path d="M211.329 45.483C211.655 45.8091 212.144 45.9721 212.742 45.9721C213.394 45.9721 213.828 45.8091 214.154 45.483C214.589 45.1026 214.752 44.4506 214.752 43.6355C214.752 42.8204 214.589 42.1683 214.154 41.7879C213.828 41.4618 213.339 41.2988 212.742 41.2988C212.089 41.2988 211.655 41.4618 211.329 41.7879C210.894 42.1683 210.731 42.8204 210.731 43.6355C210.731 44.4506 210.894 45.0483 211.329 45.483ZM211.981 42.3313C212.144 42.1139 212.416 42.0053 212.796 42.0053C213.176 42.0053 213.448 42.1139 213.611 42.3313C213.828 42.603 213.937 43.0377 213.937 43.5811C213.937 44.1245 213.828 44.6136 213.611 44.8309C213.448 45.0483 213.176 45.157 212.796 45.157C212.416 45.157 212.144 45.0483 211.981 44.8309C211.763 44.5592 211.655 44.1245 211.655 43.5811C211.655 43.0921 211.709 42.603 211.981 42.3313Z" />
<path d="M219.425 42.82C219.425 41.8419 218.936 41.2441 217.904 41.2441C217.36 41.2441 216.871 41.4615 216.545 41.7332L216.491 41.2985H215.839V45.8087H216.708V42.2766C217.034 42.1136 217.36 42.0049 217.795 42.0049C218.284 42.0049 218.556 42.2766 218.556 42.8743V45.863H219.425V42.82Z" />
<path d="M220.784 44.7221C220.784 45.5372 221.219 45.9719 221.926 45.9719C222.306 45.9719 222.686 45.8632 223.012 45.7002L222.741 44.9938C222.523 45.1025 222.306 45.1568 222.089 45.1568C221.763 45.1568 221.708 44.9394 221.708 44.6134V42.1138H222.958V41.353H221.708V40.0488H220.893L220.839 41.353L220.132 41.4073V42.0594H220.784V44.7221Z" />
<path d="M224.805 42.3856C225.132 42.1139 225.512 42.0596 225.892 42.0596C226.055 42.0596 226.273 42.0596 226.436 42.1139L226.49 41.2988C226.327 41.2988 226.218 41.2988 226.11 41.2988C225.566 41.2988 225.132 41.4618 224.751 41.9509H224.697L224.588 41.4075H223.936V45.9177H224.805V42.3856Z" />
<path d="M228.935 45.9721C229.587 45.9721 230.022 45.8091 230.348 45.483C230.783 45.1026 230.946 44.4506 230.946 43.6355C230.946 42.8204 230.783 42.1683 230.348 41.7879C230.022 41.4618 229.533 41.2988 228.935 41.2988C228.283 41.2988 227.849 41.4618 227.523 41.7879C227.088 42.1683 226.925 42.8204 226.925 43.6355C226.925 44.4506 227.088 45.1026 227.523 45.483C227.849 45.8091 228.283 45.9721 228.935 45.9721ZM228.12 42.3313C228.283 42.1139 228.555 42.0053 228.935 42.0053C229.316 42.0053 229.587 42.1139 229.75 42.3313C229.968 42.603 230.077 43.0377 230.077 43.5811C230.077 44.1245 229.968 44.6136 229.75 44.8309C229.587 45.0483 229.316 45.157 228.935 45.157C228.555 45.157 228.283 45.0483 228.12 44.8309C227.903 44.5592 227.794 44.1245 227.794 43.5811C227.794 43.0921 227.903 42.603 228.12 42.3313Z" />
<path d="M232.848 39.5596H231.978V45.863H232.848V39.5596Z" />
<path d="M235.293 43.9065C236.108 44.1238 236.38 44.2325 236.38 44.6129C236.38 44.7759 236.325 44.9389 236.162 44.9933C235.945 45.1563 235.673 45.1563 235.347 45.1563C234.912 45.1563 234.423 45.1019 234.043 44.9933L233.934 45.754C234.369 45.8627 234.912 45.917 235.456 45.917C235.999 45.917 236.488 45.8627 236.814 45.591C237.14 45.3736 237.303 44.9933 237.303 44.5042C237.303 43.7978 236.869 43.4174 236.054 43.2C235.13 42.9283 234.804 42.874 234.804 42.4936C234.804 42.3306 234.858 42.2219 234.967 42.1676C235.13 42.0589 235.402 42.0046 235.782 42.0046C236.162 42.0046 236.543 42.0589 236.923 42.1132L236.977 41.3525C236.597 41.2981 236.108 41.1895 235.673 41.1895C235.239 41.1895 234.804 41.2438 234.423 41.4612C234.043 41.6785 233.826 42.0046 233.826 42.4936C233.934 43.4174 234.586 43.7434 235.293 43.9065Z" />
<path d="M172.313 50.6994C172.095 50.9167 171.987 51.2971 171.987 51.7862V52.2752L171.334 52.3296V52.9817H171.987V56.7855H172.856V52.9817H173.834V52.2209H172.856V51.8405C172.856 51.5688 172.91 51.3515 173.019 51.2428C173.128 51.1341 173.291 51.0798 173.508 51.0798C173.671 51.0798 173.888 51.0798 174.106 51.0798L174.16 50.319C173.943 50.319 173.725 50.2646 173.508 50.2646C172.965 50.319 172.584 50.4277 172.313 50.6994Z" />
<path d="M176.442 52.1123C175.79 52.1123 175.355 52.2753 175.029 52.6014C174.595 52.9817 174.432 53.6338 174.432 54.4489C174.432 55.264 174.595 55.9161 175.029 56.2965C175.355 56.6225 175.844 56.7856 176.442 56.7856C177.04 56.7856 177.529 56.6225 177.855 56.2965C178.29 55.9161 178.453 55.264 178.453 54.4489C178.453 53.6338 178.29 52.9817 177.855 52.6014C177.529 52.2753 177.094 52.1123 176.442 52.1123ZM177.257 55.7531C177.094 55.9705 176.823 56.0791 176.442 56.0791C176.116 56.0791 175.79 55.9705 175.627 55.7531C175.41 55.4814 175.301 55.0467 175.301 54.5033C175.301 53.9599 175.41 53.5251 175.627 53.2534C175.79 53.0361 176.062 52.9274 176.442 52.9274C176.768 52.9274 177.094 53.0361 177.257 53.2534C177.475 53.5251 177.583 53.9599 177.583 54.5033C177.583 55.0467 177.475 55.4814 177.257 55.7531Z" />
<path d="M180.301 52.764L180.138 52.2206H179.486V56.7308H180.355V53.253C180.681 52.9813 181.062 52.927 181.442 52.927C181.605 52.927 181.822 52.927 181.985 52.9813L182.04 52.1662C181.877 52.1662 181.768 52.1662 181.659 52.1662C181.062 52.1119 180.681 52.2749 180.301 52.764Z" />
<path d="M187.473 56.0248C186.93 56.0248 186.441 55.8618 186.115 55.3727C185.843 54.938 185.734 54.3946 185.734 53.6338C185.734 52.8187 185.843 52.221 186.169 51.7862C186.495 51.3515 187.039 51.2428 187.636 51.2428C188.125 51.2428 188.723 51.2972 189.104 51.4059L189.212 50.5908C188.723 50.4821 188.125 50.4277 187.582 50.4277C186.767 50.4277 186.006 50.5908 185.463 51.2428C185.028 51.7862 184.756 52.6013 184.756 53.6881C184.756 54.7206 184.974 55.4814 185.354 56.0248C185.843 56.6769 186.604 56.9486 187.419 56.9486C188.125 56.9486 188.886 56.7312 189.43 56.4595L189.158 55.6987C188.669 55.8074 188.125 56.0248 187.473 56.0248Z" />
<path d="M191.332 50.4277H190.462V56.7312H191.332V50.4277Z" />
<path d="M194.375 52.1123C193.723 52.1123 193.288 52.2753 192.962 52.6014C192.527 52.9817 192.364 53.6338 192.364 54.4489C192.364 55.264 192.527 55.9161 192.962 56.2965C193.288 56.6225 193.777 56.7856 194.375 56.7856C195.027 56.7856 195.462 56.6225 195.788 56.2965C196.222 55.9161 196.385 55.264 196.385 54.4489C196.385 53.6338 196.222 52.9817 195.788 52.6014C195.462 52.2753 194.973 52.1123 194.375 52.1123ZM195.19 55.7531C195.027 55.9705 194.755 56.0791 194.375 56.0791C194.049 56.0791 193.723 55.9705 193.56 55.7531C193.342 55.4814 193.234 55.0467 193.234 54.5033C193.234 53.9599 193.342 53.5251 193.56 53.2534C193.723 53.0361 193.994 52.9274 194.375 52.9274C194.701 52.9274 195.027 53.0361 195.19 53.2534C195.407 53.5251 195.516 53.9599 195.516 54.5033C195.462 55.0467 195.407 55.4814 195.19 55.7531Z" />
<path d="M200.026 55.8072C199.7 55.9702 199.32 56.0789 198.994 56.0789C198.45 56.0789 198.179 55.8615 198.179 55.2094V52.2207H197.309V55.2638C197.309 56.2419 197.798 56.8396 198.831 56.8396C199.374 56.8396 199.863 56.6223 200.189 56.3506L200.243 56.7309H200.896V52.2207H200.026V55.8072Z" />
<path d="M204.862 52.2753C204.482 52.221 204.102 52.1666 203.83 52.1666C202.58 52.1666 202.037 52.873 202.037 54.5576C202.037 56.0248 202.526 56.8942 203.776 56.8942C204.21 56.8942 204.699 56.7312 205.025 56.4595L205.134 56.8399H205.786V50.4277H204.862V52.2753ZM204.862 55.8617C204.536 56.0248 204.21 56.1334 203.884 56.1334C203.123 56.1334 202.96 55.59 202.96 54.5576C202.96 53.4708 203.123 52.9274 203.939 52.9274C204.21 52.9274 204.591 52.9817 204.917 52.9817V55.8617H204.862Z" />
<path d="M211.655 53.1444C210.622 52.8184 210.133 52.6553 210.133 52.0033C210.133 51.7316 210.242 51.5685 210.405 51.4055C210.677 51.2425 211.057 51.1881 211.492 51.1881C212.035 51.1881 212.579 51.2425 212.959 51.3512L213.068 50.5904C212.524 50.4817 211.927 50.373 211.329 50.373C210.731 50.373 210.188 50.4817 209.753 50.8078C209.373 51.0795 209.155 51.5142 209.155 52.0576C209.155 53.1444 209.862 53.5791 210.949 53.9052C212.035 54.2312 212.416 54.4486 212.416 55.0463C212.416 55.318 212.307 55.5354 212.144 55.6984C211.872 55.9701 211.329 56.0244 210.785 56.0244C210.242 56.0244 209.644 55.9701 209.318 55.8614L209.21 56.6765C209.753 56.7852 210.405 56.8395 211.003 56.8395C211.655 56.8395 212.307 56.7308 212.742 56.4048C213.176 56.0788 213.394 55.5897 213.394 54.992C213.394 53.9052 212.687 53.4704 211.655 53.1444Z" />
<path d="M216.111 52.1123C214.753 52.1123 214.155 53.2534 214.155 54.5033C214.155 56.0248 214.861 56.8399 216.22 56.8399C216.817 56.8399 217.361 56.6769 217.796 56.4595L217.578 55.7531C217.198 55.9161 216.763 56.0248 216.274 56.0248C215.894 56.0248 215.568 55.9161 215.35 55.6988C215.187 55.4814 215.079 55.1554 215.024 54.775H217.741C217.796 54.5576 217.796 54.3403 217.796 54.0685C217.85 52.9274 217.198 52.1123 216.111 52.1123ZM215.079 54.1229C215.133 53.4708 215.405 52.9274 216.111 52.9274C216.817 52.9274 217.035 53.4708 217.035 54.1229H215.079Z" />
<path d="M218.828 56.7316H219.697V53.2538C220.023 52.9821 220.403 52.9278 220.784 52.9278C220.947 52.9278 221.164 52.9278 221.327 52.9821L221.382 52.167C221.219 52.167 221.11 52.167 221.001 52.167C220.458 52.167 220.023 52.33 219.643 52.8191H219.588L219.48 52.2757H218.828V56.7316Z" />
<path d="M221.653 52.2207C221.979 53.6879 222.468 55.2638 223.066 56.7309H224.316C224.914 55.2638 225.348 53.6879 225.729 52.2207H224.805C224.479 53.5792 224.153 54.9377 223.718 56.0245H223.664C223.229 54.9377 222.903 53.5792 222.577 52.2207H221.653Z" />
<path d="M227.413 52.2207H226.544V56.7309H227.413V52.2207Z" />
<path d="M226.979 51.4059C227.251 51.4059 227.468 51.1885 227.468 50.9168C227.468 50.6451 227.251 50.4277 226.979 50.4277C226.707 50.4277 226.49 50.6451 226.49 50.9168C226.49 51.1885 226.707 51.4059 226.979 51.4059Z" />
<path d="M230.674 52.9274C231 52.9274 231.38 52.9817 231.706 53.0361L231.761 52.2753C231.38 52.1666 230.945 52.1123 230.511 52.1123C229.424 52.1123 228.446 52.547 228.446 54.5033C228.446 56.1878 229.207 56.8399 230.402 56.8399C230.945 56.8399 231.543 56.6769 231.924 56.4595L231.652 55.7531C231.271 55.9161 230.891 56.0248 230.456 56.0248C229.696 56.0248 229.315 55.5357 229.315 54.4489C229.37 53.2534 229.804 52.9274 230.674 52.9274Z" />
<path d="M234.587 56.8395C235.184 56.8395 235.728 56.6765 236.162 56.4592L235.945 55.7527C235.565 55.9158 235.13 56.0244 234.641 56.0244C234.261 56.0244 233.934 55.9158 233.717 55.6984C233.554 55.481 233.445 55.155 233.391 54.7746H236.108C236.162 54.5573 236.162 54.3399 236.162 54.0682C236.162 52.8727 235.51 52.0576 234.424 52.0576C233.065 52.0576 232.467 53.1988 232.467 54.4486C232.576 56.0244 233.282 56.8395 234.587 56.8395ZM234.478 52.8727C235.184 52.8727 235.402 53.4161 235.402 54.0682H233.5C233.5 53.4705 233.826 52.8727 234.478 52.8727Z" />
<path d="M238.39 54.7746C239.205 54.992 239.477 55.1007 239.477 55.481C239.477 55.6441 239.423 55.8071 239.259 55.8614C239.042 56.0245 238.77 56.0244 238.444 56.0244C238.01 56.0244 237.521 55.9701 237.14 55.8614L237.032 56.6222C237.466 56.7309 238.01 56.7852 238.553 56.7852C239.096 56.7852 239.586 56.7309 239.912 56.4592C240.238 56.2418 240.401 55.8614 240.401 55.3724C240.401 54.6659 239.966 54.2856 239.151 54.0682C238.227 53.7965 237.901 53.7422 237.901 53.3618C237.901 53.1988 237.955 53.0901 238.064 53.0357C238.227 52.9271 238.499 52.8727 238.879 52.8727C239.259 52.8727 239.64 52.9271 240.02 52.9814L240.075 52.2206C239.694 52.1663 239.205 52.0576 238.77 52.0576C238.336 52.0576 237.901 52.112 237.521 52.3293C237.14 52.5467 236.923 52.8727 236.923 53.3618C236.977 54.2856 237.629 54.6116 238.39 54.7746Z" />
<path d="M263.496 11.8457H262.191V20.5945H263.496V11.8457Z" />
<path d="M267.516 16.5742C269.038 17.0089 269.527 17.2806 269.527 18.1501C269.527 18.5305 269.418 18.8022 269.147 19.0195C268.766 19.3999 268.06 19.5086 267.299 19.5086C266.538 19.5086 265.723 19.3999 265.234 19.3456L265.071 20.4324C265.832 20.541 266.701 20.7041 267.571 20.7041C268.494 20.7041 269.364 20.541 269.962 20.052C270.505 19.6173 270.831 18.9652 270.831 18.1501C270.831 16.6285 269.853 16.0308 268.44 15.5961C267.027 15.1614 266.321 14.8897 266.321 14.0202C266.321 13.6942 266.43 13.4225 266.756 13.2051C267.082 12.9878 267.679 12.8791 268.277 12.8791C268.984 12.8791 269.799 12.9878 270.288 13.0421L270.451 11.9553C269.69 11.7923 268.82 11.6836 268.06 11.6836C267.299 11.6836 266.484 11.7923 265.886 12.2813C265.343 12.7161 265.071 13.2595 265.071 14.0202C265.017 15.5417 265.995 16.1395 267.516 16.5742Z" />
<path d="M275.613 20.7578C278.276 20.7578 279.363 19.2362 279.363 16.2475C279.363 13.3132 278.221 11.7373 275.613 11.7373C272.95 11.7373 271.864 13.2588 271.864 16.2475C271.809 19.1819 272.95 20.7578 275.613 20.7578ZM275.613 12.8784C277.352 12.8784 278.058 13.9109 278.058 16.1932C278.058 18.4755 277.352 19.5079 275.613 19.5079C273.874 19.5079 273.168 18.4755 273.168 16.1932C273.168 13.9109 273.874 12.8784 275.613 12.8784Z" />
<path d="M284.525 11.8457H283.438L280.069 20.5945H281.156L284.525 11.8457Z" />
<path d="M286.971 11.8457H285.667V20.5945H286.971V11.8457Z" />
<path d="M294.035 19.4533H290.122V16.682H293.328V15.5408H290.122V13.0412H294.035V11.8457H288.818V20.5945H294.035V19.4533Z" />
<path d="M298.545 20.7581C299.523 20.7581 300.61 20.4864 301.316 20.106L300.936 19.0736C300.229 19.3453 299.414 19.617 298.545 19.617C297.784 19.617 297.078 19.3996 296.643 18.7475C296.263 18.2041 296.154 17.389 296.154 16.3022C296.154 15.1611 296.317 14.346 296.752 13.7482C297.186 13.1505 297.947 12.9875 298.817 12.9875C299.523 12.9875 300.338 13.0418 300.882 13.1505L300.99 12.0637C300.338 11.9007 299.523 11.792 298.708 11.792C297.567 11.792 296.48 12.0637 295.774 12.8788C295.176 13.6396 294.795 14.7264 294.795 16.2479C294.795 17.6607 295.067 18.7475 295.611 19.5083C296.317 20.3777 297.404 20.7581 298.545 20.7581Z" />
<path d="M264.419 26.4634C265.343 26.4634 266.158 26.8438 266.158 27.9306C266.158 29.3978 264.419 31.028 262.028 33.1472V34.1797H267.625V33.0386H263.713C265.56 31.4627 267.462 29.8325 267.462 27.9306C267.462 26.1917 266.267 25.3223 264.528 25.3223C263.55 25.3223 262.517 25.594 261.865 25.92L262.246 26.9525C262.789 26.7351 263.658 26.4634 264.419 26.4634Z" />
<path d="M274.363 25.4316H268.658V26.5728H273.005C271.646 29.0724 270.668 31.246 269.908 34.1804H271.32C272.027 31.1917 272.951 29.0181 274.363 26.5184V25.4316Z" />
<path d="M278.602 34.3427C281.156 34.3427 281.754 32.7669 281.754 29.8325C281.754 26.8981 281.156 25.3223 278.602 25.3223C276.048 25.3223 275.45 26.8981 275.45 29.8325C275.45 32.7125 276.048 34.3427 278.602 34.3427ZM278.602 26.4634C280.341 26.4634 280.449 27.7676 280.449 29.8325C280.449 31.8974 280.341 33.2016 278.602 33.2016C276.863 33.2016 276.754 31.8974 276.754 29.8325C276.754 27.7676 276.863 26.4634 278.602 26.4634Z" />
<path d="M282.568 27.4422L284.416 26.7901V34.1804H285.72V25.4316H284.525L282.188 26.5728L282.568 27.4422Z" />
<path d="M292.078 29.6151C292.785 29.3434 293.328 28.7457 293.328 27.7132C293.328 26.1917 292.187 25.3223 290.503 25.3223C288.818 25.3223 287.677 26.1917 287.677 27.7132C287.677 28.8 288.22 29.3434 288.927 29.6151C288.166 29.8868 287.459 30.4846 287.459 31.7344C287.459 33.419 288.601 34.2884 290.503 34.2884C292.404 34.2884 293.546 33.419 293.546 31.7344C293.546 30.5389 292.894 29.8868 292.078 29.6151ZM290.503 26.4634C291.481 26.4634 292.024 26.8438 292.024 27.7676C292.024 28.6914 291.426 29.0717 290.503 29.0717C289.579 29.0717 288.981 28.6914 288.981 27.7676C288.981 26.8438 289.524 26.4634 290.503 26.4634ZM290.503 33.1473C289.47 33.1473 288.818 32.7125 288.818 31.6801C288.818 30.6476 289.47 30.2129 290.503 30.2129C291.535 30.2129 292.187 30.6476 292.187 31.6801C292.187 32.7125 291.535 33.1473 290.503 33.1473Z" />
<path d="M262.626 43.7437C263.006 43.798 263.278 43.798 263.604 43.798C264.745 43.798 265.723 43.4176 265.723 41.9504C265.723 40.5919 264.854 40.1572 263.658 40.1572C263.06 40.1572 262.354 40.2116 261.811 40.2659V45.8086H262.626V43.7437ZM262.626 40.9723C262.897 40.9723 263.278 40.918 263.604 40.918C264.419 40.918 264.908 41.1354 264.908 42.0048C264.908 42.9829 264.31 43.1459 263.386 43.1459C263.169 43.1459 263.006 43.1459 262.68 43.1459V40.9723H262.626Z" />
<path d="M267.299 42.7662C267.571 42.5488 267.897 42.4402 268.223 42.4402C268.386 42.4402 268.549 42.4402 268.712 42.4945L268.766 41.7881C268.603 41.7881 268.494 41.7881 268.44 41.7881C267.951 41.7881 267.571 41.8968 267.245 42.3858H267.19L267.082 41.8968H266.484V45.9179H267.299V42.7662Z" />
<path d="M270.994 45.9716C271.538 45.9716 271.973 45.8086 272.244 45.5369C272.625 45.1565 272.788 44.6131 272.788 43.9067C272.788 43.2003 272.625 42.6026 272.244 42.2765C271.973 42.0048 271.538 41.8418 270.994 41.8418C270.451 41.8418 270.016 42.0048 269.745 42.2765C269.364 42.6569 269.201 43.2003 269.201 43.9067C269.201 44.6131 269.364 45.2109 269.745 45.5369C270.016 45.8086 270.397 45.9716 270.994 45.9716ZM270.288 42.7656C270.451 42.6026 270.668 42.4939 270.994 42.4939C271.32 42.4939 271.538 42.6026 271.701 42.7656C271.918 42.9829 271.973 43.4177 271.973 43.9067C271.973 44.3958 271.918 44.7762 271.701 45.0479C271.538 45.2109 271.32 45.3196 270.994 45.3196C270.668 45.3196 270.451 45.2109 270.288 45.0479C270.071 44.8305 270.016 44.3958 270.016 43.9067C269.962 43.3633 270.071 42.9829 270.288 42.7656Z" />
<path d="M274.853 45.9722C275.179 45.9722 275.559 45.8635 275.831 45.7548L275.559 45.1571C275.342 45.2657 275.179 45.3201 274.962 45.3201C274.636 45.3201 274.581 45.1027 274.581 44.831V42.6031H275.722V41.8423H274.581V40.7012H273.875L273.821 41.8967L273.168 41.951V42.5487H273.766V44.8854C273.821 45.5918 274.201 45.9722 274.853 45.9722Z" />
<path d="M278.113 45.9723C278.656 45.9723 279.145 45.8093 279.526 45.6462L279.363 44.9942C279.037 45.1572 278.602 45.2659 278.221 45.2659C277.895 45.2659 277.624 45.2115 277.406 44.9942C277.243 44.8311 277.135 44.5051 277.135 44.1791H279.526C279.58 44.016 279.58 43.7987 279.58 43.5813C279.58 42.4945 279.037 41.7881 278.058 41.7881C276.809 41.7881 276.32 42.8205 276.32 43.9074C276.265 45.2115 276.917 45.9723 278.113 45.9723ZM278.004 42.4402C278.656 42.4402 278.819 42.9292 278.819 43.527H277.08C277.135 42.9836 277.406 42.4402 278.004 42.4402Z" />
<path d="M281.917 45.9719C282.406 45.9719 282.949 45.8089 283.275 45.6459L283.058 44.9938C282.732 45.1568 282.351 45.2655 281.971 45.2655C281.319 45.2655 280.939 44.8308 280.939 43.8527C280.939 42.7659 281.319 42.4398 282.134 42.4398C282.46 42.4398 282.786 42.4942 283.058 42.4942L283.112 41.8421C282.786 41.7877 282.406 41.7334 282.025 41.7334C281.047 41.7334 280.178 42.1681 280.178 43.8527C280.178 45.3742 280.884 45.9719 281.917 45.9719Z" />
<path d="M285.286 45.9722C285.612 45.9722 285.992 45.8635 286.264 45.7548L285.992 45.1571C285.775 45.2657 285.612 45.3201 285.394 45.3201C285.068 45.3201 285.014 45.1027 285.014 44.831V42.6031H286.155V41.8423H285.014V40.7012H284.307L284.253 41.8967L283.601 41.951V42.5487H284.199V44.8854C284.253 45.5918 284.634 45.9722 285.286 45.9722Z" />
<path d="M287.84 41.8418H287.025V45.863H287.84V41.8418Z" />
<path d="M287.405 41.1351C287.623 41.1351 287.84 40.9177 287.84 40.7003C287.84 40.483 287.623 40.2656 287.405 40.2656C287.188 40.2656 286.971 40.483 286.971 40.7003C286.971 40.9177 287.188 41.1351 287.405 41.1351Z" />
<path d="M291.807 45.5369C292.187 45.1565 292.35 44.6131 292.35 43.9067C292.35 43.2003 292.187 42.6026 291.807 42.2765C291.535 42.0048 291.1 41.8418 290.557 41.8418C290.013 41.8418 289.579 42.0048 289.307 42.2765C288.927 42.6569 288.764 43.2003 288.764 43.9067C288.764 44.6131 288.927 45.2109 289.307 45.5369C289.579 45.8086 290.013 45.9716 290.557 45.9716C291.1 45.9716 291.481 45.8086 291.807 45.5369ZM289.524 43.8524C289.524 43.3633 289.579 42.9829 289.796 42.7112C289.959 42.5482 290.176 42.4395 290.503 42.4395C290.829 42.4395 291.046 42.5482 291.209 42.7112C291.426 42.9286 291.481 43.3633 291.481 43.8524C291.481 44.3414 291.426 44.7218 291.209 44.9935C291.046 45.1565 290.829 45.2652 290.503 45.2652C290.176 45.2652 289.959 45.1565 289.796 44.9935C289.579 44.7762 289.524 44.3414 289.524 43.8524Z" />
<path d="M296.426 45.8633V43.1462C296.426 42.2768 295.991 41.7334 295.067 41.7334C294.578 41.7334 294.144 41.9508 293.872 42.1681L293.817 41.7877H293.22V45.8089H294.035V42.6572C294.307 42.5485 294.633 42.3855 295.013 42.3855C295.448 42.3855 295.665 42.6028 295.665 43.1462V45.7546H296.426V45.8633Z" />
<path d="M302.892 43.853C302.892 43.1466 302.729 42.5488 302.348 42.2228C302.077 41.9511 301.642 41.7881 301.098 41.7881C300.555 41.7881 300.12 41.9511 299.849 42.2228C299.468 42.6032 299.305 43.1466 299.305 43.853C299.305 44.5594 299.468 45.1572 299.849 45.4832C300.12 45.7549 300.555 45.9179 301.098 45.9179C301.642 45.9179 302.077 45.7549 302.348 45.4832C302.729 45.1572 302.892 44.5594 302.892 43.853ZM301.805 44.9942C301.642 45.1572 301.424 45.2659 301.098 45.2659C300.772 45.2659 300.555 45.1572 300.392 44.9942C300.175 44.7768 300.12 44.3421 300.12 43.853C300.12 43.3639 300.175 42.9836 300.392 42.7119C300.555 42.5488 300.772 42.4402 301.098 42.4402C301.424 42.4402 301.642 42.5488 301.805 42.7119C302.022 42.9292 302.077 43.3639 302.077 43.853C302.131 44.3421 302.022 44.7768 301.805 44.9942Z" />
<path d="M305.717 41.8414H304.848V41.5154C304.848 41.2437 304.848 41.0807 304.957 40.972C305.011 40.8633 305.174 40.809 305.391 40.809C305.554 40.809 305.717 40.809 305.935 40.809L305.989 40.1569C305.772 40.1569 305.609 40.1025 305.391 40.1025C304.957 40.1025 304.631 40.1569 304.359 40.4286C304.141 40.6459 304.033 40.9176 304.033 41.4067V41.8414L303.435 41.8958V42.4935H304.033V45.8626H304.848V42.4935H305.717V41.8414Z" />
<path d="M265.723 51.7317C265.723 50.3732 264.854 49.9385 263.658 49.9385C263.06 49.9385 262.354 49.9928 261.811 50.0472V55.5899H262.626V53.4706C263.006 53.5249 263.278 53.5249 263.604 53.5249C264.745 53.5793 265.723 53.1989 265.723 51.7317ZM263.332 52.9272C263.115 52.9272 262.952 52.9272 262.626 52.9272V50.7536C262.897 50.7536 263.278 50.6992 263.604 50.6992C264.419 50.6992 264.908 50.9166 264.908 51.786C264.854 52.7098 264.256 52.9272 263.332 52.9272Z" />
<path d="M269.473 53.3079C269.473 52.2211 268.929 51.5146 267.951 51.5146C266.701 51.5146 266.212 52.5471 266.212 53.6339C266.212 54.9381 266.864 55.6988 268.006 55.6988C268.549 55.6988 269.038 55.5358 269.418 55.3728L269.255 54.7207C268.929 54.8837 268.495 54.9924 268.114 54.9924C267.788 54.9924 267.517 54.9381 267.299 54.7207C267.136 54.5577 267.028 54.2317 267.028 53.9056H269.418C269.473 53.7426 269.473 53.5252 269.473 53.3079ZM267.028 53.3079C267.082 52.7645 267.354 52.2211 267.897 52.2211C268.549 52.2211 268.712 52.7101 268.712 53.3079H267.028Z" />
<path d="M271.157 52.5475C271.429 52.3301 271.755 52.2214 272.081 52.2214C272.244 52.2214 272.407 52.2214 272.57 52.2758L272.625 51.5693C272.462 51.5693 272.353 51.5693 272.299 51.5693C271.809 51.5693 271.429 51.678 271.103 52.1671H271.049L270.94 51.678H270.342V55.6992H271.157V52.5475Z" />
<path d="M276.102 54.5034C276.102 53.8513 275.722 53.5252 275.015 53.3622C274.2 53.1449 273.874 53.0362 273.874 52.7101C273.874 52.6015 273.929 52.4928 274.037 52.3841C274.2 52.2754 274.418 52.2211 274.744 52.2211C275.07 52.2211 275.45 52.2754 275.722 52.2754L275.776 51.6233C275.45 51.569 275.015 51.5146 274.635 51.5146C274.2 51.5146 273.82 51.569 273.548 51.732C273.222 51.9494 273.005 52.2211 273.005 52.6558C273.005 53.4166 273.603 53.6883 274.255 53.8513C274.961 54.0686 275.233 54.123 275.233 54.449C275.233 54.612 275.179 54.7207 275.015 54.8294C274.852 54.9381 274.581 54.9924 274.255 54.9924C273.82 54.9924 273.44 54.9381 273.059 54.8837L273.005 55.5358C273.385 55.6445 273.874 55.6988 274.363 55.6988C274.798 55.6988 275.287 55.6445 275.613 55.3728C275.939 55.2641 276.102 54.9381 276.102 54.5034Z" />
<path d="M278.439 55.7529C278.983 55.7529 279.417 55.5899 279.689 55.3182C280.069 54.9378 280.232 54.3944 280.232 53.688C280.232 52.9816 280.069 52.3838 279.689 52.0578C279.417 51.7861 278.983 51.623 278.439 51.623C277.896 51.623 277.461 51.7861 277.189 52.0578C276.809 52.4382 276.646 52.9816 276.646 53.688C276.646 54.3944 276.809 54.9921 277.189 55.3182C277.461 55.5899 277.841 55.7529 278.439 55.7529ZM277.733 52.5468C277.896 52.3838 278.113 52.2751 278.439 52.2751C278.765 52.2751 278.983 52.3838 279.146 52.5468C279.363 52.7642 279.417 53.1989 279.417 53.688C279.417 54.177 279.363 54.5574 279.146 54.8291C278.983 54.9921 278.765 55.1008 278.439 55.1008C278.113 55.1008 277.896 54.9921 277.733 54.8291C277.515 54.6118 277.461 54.177 277.461 53.688C277.407 53.1446 277.515 52.7642 277.733 52.5468Z" />
<path d="M283.003 51.5693C282.514 51.5693 282.08 51.7867 281.808 52.0041L281.753 51.6237H281.156V55.6448H281.971V52.4931C282.243 52.3844 282.569 52.2214 282.949 52.2214C283.384 52.2214 283.601 52.4388 283.601 52.9822V55.5905H284.416V52.8735C284.362 52.1127 283.927 51.5693 283.003 51.5693Z" />
<path d="M288.383 52.8732C288.383 52.3841 288.22 52.058 288.003 51.8407C287.731 51.6233 287.296 51.5146 286.807 51.5146C286.373 51.5146 285.829 51.569 285.503 51.6777L285.612 52.3298C285.884 52.2754 286.373 52.2211 286.753 52.2211C287.079 52.2211 287.296 52.2754 287.459 52.3841C287.568 52.4928 287.622 52.6558 287.622 52.8732V53.2535C287.351 53.2535 287.025 53.1992 286.753 53.1992C286.318 53.1992 285.938 53.3079 285.666 53.5252C285.394 53.7426 285.231 54.123 285.231 54.449C285.231 55.1554 285.72 55.6988 286.536 55.6988C286.97 55.6988 287.405 55.5358 287.731 55.2641L287.84 55.5902H288.438V52.8732H288.383ZM287.568 54.8294C287.351 54.9924 287.025 55.1011 286.699 55.1011C286.264 55.1011 285.992 54.8294 285.992 54.449C285.992 54.0143 286.264 53.7969 286.862 53.7969C287.079 53.7969 287.351 53.7969 287.568 53.7969V54.8294Z" />
<path d="M290.339 50.0469H289.524V55.6439H290.339V50.0469Z" />
<path d="M292.241 50.0469H291.426V55.6439H292.241V50.0469Z" />
<path d="M294.633 55.6442C294.47 56.0789 294.307 56.6223 294.089 57.2201H294.85C295.502 55.5899 296.1 53.4706 296.535 51.623H295.719C295.448 52.7642 295.122 54.014 294.796 54.9921H294.741C294.415 53.9053 294.089 52.7642 293.818 51.623H293.002C293.383 53.0902 293.763 54.5031 294.198 55.6442H294.633Z" />
<path d="M300.284 50.0469H299.469V55.6439H300.284V50.0469Z" />
<path d="M303.87 51.6771C303.544 51.6227 303.218 51.5684 302.946 51.5684C301.86 51.5684 301.371 52.2205 301.371 53.6877C301.371 54.9918 301.805 55.7526 302.946 55.7526C303.327 55.7526 303.762 55.5896 304.033 55.3179L304.088 55.6439H304.685V50.0469H303.87V51.6771ZM303.87 54.8832C303.599 55.0462 303.273 55.1005 303.001 55.1005C302.349 55.1005 302.131 54.6115 302.131 53.6877C302.131 52.7095 302.294 52.2748 303.001 52.2748C303.273 52.2748 303.599 52.2748 303.87 52.3292V54.8832Z" />
<path d="M307.24 51.5693C305.99 51.5693 305.501 52.6018 305.501 53.6886C305.501 54.9928 306.153 55.7535 307.294 55.7535C307.838 55.7535 308.327 55.5905 308.707 55.4275L308.544 54.7754C308.218 54.9384 307.783 55.0471 307.403 55.0471C307.077 55.0471 306.805 54.9928 306.588 54.7754C306.425 54.6124 306.316 54.2863 306.316 53.9603H308.707C308.761 53.7973 308.761 53.5799 308.761 53.3626C308.761 52.2214 308.218 51.5693 307.24 51.5693ZM306.316 53.3082C306.37 52.7648 306.642 52.2214 307.186 52.2214C307.838 52.2214 308.001 52.7105 308.001 53.3082H306.316Z" />
<path d="M311.532 51.5693C311.043 51.5693 310.608 51.7867 310.337 52.0041L310.282 51.6237H309.685V55.6448H310.5V52.4931C310.771 52.3844 311.097 52.2214 311.478 52.2214C311.913 52.2214 312.13 52.4388 312.13 52.9822V55.5905H312.945V52.8735C312.891 52.1127 312.456 51.5693 311.532 51.5693Z" />
<path d="M315.282 54.9927C314.955 54.9927 314.901 54.7753 314.901 54.5036V52.2756H316.042V51.6236H314.901V50.4824H314.195L314.14 51.6779L313.488 51.7322V52.33H314.086V54.6666C314.086 55.373 314.466 55.7534 315.118 55.7534C315.445 55.7534 315.825 55.6447 316.097 55.5361L315.825 54.9383C315.608 54.9383 315.445 54.9927 315.282 54.9927Z" />
<path d="M317.673 51.623H316.857V55.6442H317.673V51.623Z" />
<path d="M317.292 50.0469C317.075 50.0469 316.857 50.2642 316.857 50.4816C316.857 50.699 317.075 50.9163 317.292 50.9163C317.51 50.9163 317.727 50.699 317.727 50.4816C317.727 50.2642 317.51 50.0469 317.292 50.0469Z" />
<path d="M319.846 51.2966C319.846 51.0249 319.846 50.8619 319.955 50.7532C320.009 50.6446 320.172 50.5902 320.389 50.5902C320.552 50.5902 320.715 50.5902 320.933 50.5902L320.987 49.9381C320.77 49.9381 320.607 49.8838 320.389 49.8838C319.955 49.8838 319.629 49.9381 319.357 50.2098C319.14 50.4272 319.031 50.6989 319.031 51.1879V51.6227L318.433 51.677V52.2748H319.031V55.6438H319.846V52.2748H321.639V55.6438H322.454V51.6227H319.846V51.2966Z" />
<path d="M322.454 50.0469H321.639V50.9163H322.454V50.0469Z" />
<path d="M324.954 51.5693C324.52 51.5693 323.976 51.6237 323.65 51.7324L323.759 52.3844C324.031 52.3301 324.52 52.2758 324.9 52.2758C325.226 52.2758 325.443 52.3301 325.606 52.4388C325.715 52.5475 325.769 52.7105 325.769 52.9278V53.2539C325.498 53.2539 325.172 53.1995 324.9 53.1995C324.465 53.1995 324.085 53.3082 323.813 53.5256C323.541 53.7429 323.378 54.1233 323.378 54.4494C323.378 55.1558 323.867 55.6992 324.683 55.6992C325.117 55.6992 325.552 55.5362 325.878 55.2645L325.987 55.5905H326.585V52.8192C326.585 52.3301 326.421 52.0041 326.204 51.7867C325.878 51.6237 325.443 51.5693 324.954 51.5693ZM325.769 54.8297C325.552 54.9928 325.226 55.1014 324.9 55.1014C324.465 55.1014 324.194 54.8297 324.194 54.4494C324.194 54.0146 324.465 53.7973 325.063 53.7973C325.28 53.7973 325.552 53.7973 325.769 53.7973V54.8297Z" />
<path d="M329.41 51.5684C329.084 51.5684 328.703 51.6771 328.432 51.8401V50.0469H327.671V55.4809C328.106 55.6439 328.812 55.7526 329.41 55.7526C330.497 55.7526 330.986 55.1005 330.986 53.6333C330.986 52.2748 330.551 51.5684 329.41 51.5684ZM329.301 55.1005C329.029 55.1005 328.703 55.0462 328.432 55.0462V52.4922C328.703 52.3835 328.975 52.2748 329.301 52.2748C329.953 52.2748 330.171 52.7639 330.171 53.6333C330.171 54.6658 330.008 55.1005 329.301 55.1005Z" />
<path d="M332.724 50.0469H331.909V55.6439H332.724V50.0469Z" />
<path d="M336.855 53.3079C336.855 52.2211 336.311 51.5146 335.333 51.5146C334.083 51.5146 333.594 52.5471 333.594 53.6339C333.594 54.9381 334.246 55.6988 335.387 55.6988C335.931 55.6988 336.42 55.5358 336.8 55.3728L336.637 54.7207C336.311 54.8837 335.877 54.9924 335.496 54.9924C335.17 54.9924 334.898 54.9381 334.681 54.7207C334.518 54.5577 334.409 54.2317 334.409 53.9056H336.8C336.8 53.7426 336.855 53.5252 336.855 53.3079ZM334.409 53.3079C334.464 52.7645 334.735 52.2211 335.279 52.2211C335.931 52.2211 336.094 52.7101 336.094 53.3079H334.409Z" />
<path d="M262.572 59.8281H261.757V65.4252H262.572V59.8281Z" />
<path d="M265.724 61.3496C265.234 61.3496 264.8 61.567 264.528 61.7843L264.474 61.4039H263.876V65.4251H264.691V62.2734C264.963 62.1647 265.289 62.0017 265.669 62.0017C266.104 62.0017 266.321 62.2191 266.321 62.7625V65.3708H267.136V62.6538C267.082 61.893 266.647 61.3496 265.724 61.3496Z" />
<path d="M268.712 60.0454C268.495 60.2628 268.386 60.5345 268.386 61.0235V61.4583L267.788 61.5126V62.1103H268.386V65.4794H269.201V62.1103H270.07V61.4039H269.201V61.0779C269.201 60.8062 269.201 60.6432 269.31 60.5345C269.364 60.4258 269.527 60.3715 269.744 60.3715C269.907 60.3715 270.07 60.3715 270.288 60.3715L270.342 59.7194C270.125 59.7194 269.962 59.665 269.744 59.665C269.31 59.7737 268.984 59.8281 268.712 60.0454Z" />
<path d="M272.407 61.3496C271.864 61.3496 271.429 61.5126 271.157 61.7843C270.777 62.1647 270.614 62.7081 270.614 63.4145C270.614 64.121 270.777 64.7187 271.157 65.0447C271.429 65.3164 271.864 65.4795 272.407 65.4795C272.95 65.4795 273.385 65.3164 273.657 65.0447C274.037 64.6644 274.2 64.121 274.2 63.4145C274.2 62.7081 274.037 62.1104 273.657 61.7843C273.385 61.5126 272.95 61.3496 272.407 61.3496ZM273.113 64.5557C272.95 64.7187 272.733 64.8274 272.407 64.8274C272.081 64.8274 271.864 64.7187 271.701 64.5557C271.483 64.3383 271.429 63.9036 271.429 63.4145C271.429 62.9255 271.483 62.5451 271.701 62.2734C271.864 62.1104 272.081 62.0017 272.407 62.0017C272.733 62.0017 272.95 62.1104 273.113 62.2734C273.331 62.4908 273.385 62.9255 273.385 63.4145C273.385 63.9036 273.331 64.3383 273.113 64.5557Z" />
<path d="M275.831 61.893L275.668 61.4039H275.07V65.4251H275.885V62.3277C276.157 62.1104 276.483 62.0017 276.809 62.0017C276.972 62.0017 277.135 62.0017 277.298 62.056L277.353 61.3496C277.19 61.3496 277.081 61.3496 277.027 61.3496C276.537 61.3496 276.157 61.4583 275.831 61.893Z" />
<path d="M282.189 61.3496C281.7 61.3496 281.265 61.567 280.939 61.8387C280.722 61.5126 280.396 61.3496 279.907 61.3496C279.418 61.3496 278.983 61.567 278.711 61.7843L278.657 61.4039H278.059V65.4251H278.874V62.2734C279.146 62.1104 279.472 62.056 279.744 62.056C280.178 62.056 280.396 62.2734 280.396 62.7625V65.4251H281.211V62.8168C281.211 62.6538 281.211 62.4907 281.156 62.3277C281.483 62.1647 281.809 62.056 282.08 62.056C282.515 62.056 282.787 62.2734 282.787 62.7625V65.4251H283.602V62.8168C283.547 61.8387 283.058 61.3496 282.189 61.3496Z" />
<path d="M285.992 61.3496C285.557 61.3496 285.014 61.4039 284.688 61.5126L284.796 62.1647C285.068 62.1104 285.557 62.056 285.938 62.056C286.264 62.056 286.481 62.1104 286.644 62.2191C286.753 62.3277 286.807 62.4908 286.807 62.7081V63.0342C286.535 63.0342 286.209 62.9798 285.938 62.9798C285.503 62.9798 285.122 63.0885 284.851 63.3059C284.579 63.5232 284.416 63.9036 284.416 64.2296C284.416 64.9361 284.905 65.4795 285.72 65.4795C286.155 65.4795 286.59 65.3164 286.916 65.0447L287.024 65.3708H287.622V62.5994C287.622 62.1104 287.459 61.7843 287.242 61.567C286.916 61.404 286.481 61.3496 285.992 61.3496ZM286.807 64.61C286.59 64.773 286.264 64.8817 285.938 64.8817C285.503 64.8817 285.231 64.61 285.231 64.2296C285.231 63.7949 285.503 63.5776 286.101 63.5776C286.318 63.5776 286.59 63.5776 286.807 63.5776V64.61Z" />
<path d="M289.959 64.7739C289.633 64.7739 289.579 64.5565 289.579 64.2848V62.0569H290.72V61.4048H289.633V60.2637H288.927L288.872 61.4592L288.22 61.5135V62.1112H288.818V64.4479C288.818 65.1543 289.198 65.5347 289.85 65.5347C290.176 65.5347 290.557 65.426 290.829 65.3173L290.557 64.7196C290.339 64.7196 290.176 64.7739 289.959 64.7739Z" />
<path d="M292.404 61.4043H291.589V65.4255H292.404V61.4043Z" />
<path d="M291.97 59.8281C291.753 59.8281 291.535 60.0455 291.535 60.2628C291.535 60.4802 291.753 60.6976 291.97 60.6976C292.187 60.6976 292.405 60.4802 292.405 60.2628C292.405 60.0455 292.242 59.8281 291.97 59.8281Z" />
<path d="M295.068 61.3496C294.524 61.3496 294.09 61.5126 293.818 61.7843C293.437 62.1647 293.274 62.7081 293.274 63.4145C293.274 64.121 293.437 64.7187 293.818 65.0447C294.09 65.3164 294.524 65.4795 295.068 65.4795C295.611 65.4795 296.046 65.3164 296.317 65.0447C296.698 64.6644 296.861 64.121 296.861 63.4145C296.861 62.7081 296.698 62.1104 296.317 61.7843C296.046 61.5126 295.665 61.3496 295.068 61.3496ZM295.774 64.5557C295.611 64.7187 295.394 64.8274 295.068 64.8274C294.742 64.8274 294.524 64.7187 294.361 64.5557C294.144 64.3383 294.09 63.9036 294.09 63.4145C294.09 62.9255 294.144 62.5451 294.361 62.2734C294.524 62.1104 294.742 62.0017 295.068 62.0017C295.394 62.0017 295.611 62.1104 295.774 62.2734C295.991 62.4908 296.046 62.9255 296.046 63.4145C296.1 63.9036 295.991 64.3383 295.774 64.5557Z" />
<path d="M299.632 61.3496C299.143 61.3496 298.708 61.567 298.436 61.7843L298.382 61.4039H297.784V65.4251H298.599V62.2734C298.871 62.1647 299.197 62.0017 299.577 62.0017C300.012 62.0017 300.229 62.2191 300.229 62.7625V65.3708H301.045V62.6538C300.99 61.893 300.556 61.3496 299.632 61.3496Z" />
</g>
</svg>
