<svg version="1.2" xmlns="http://www.w3.org/2000/svg" viewBox="0 0 138 96" width="138" height="96">
	<title>business</title>
	<defs>
		<clipPath clipPathUnits="userSpaceOnUse" id="cp1">
			<path d="m67.64 53.6h28.8l7.2 39.6h-43.2z"/>
		</clipPath>
	</defs>
	<style>
		.s0 { fill: #76baff } 
		.s1 { fill: #1a8cff } 
		.s2 { fill: #b8bdcc } 
		.s3 { fill: #dadde6 } 
		.s4 { fill: #f3f3f3 } 
		.s5 { fill: #a1a5b3 } 
		.s6 { fill: #0066cc } 
		.s7 { fill: #f8d772 } 
		.s8 { fill: #439d6d } 
		.s9 { fill: #c4cdd5 } 
		.s10 { fill: #ff9900 } 
	</style>
	<g id="Layer">
		<g id="Layer">
			<path id="Layer" fill-rule="evenodd" class="s0" d="m95 51h16v44h-16z"/>
			<path id="Layer" fill-rule="evenodd" class="s1" d="m111 74v2h-9v-2zm0-8v2h-9v-2zm0-8v2h-9v-2z"/>
			<path id="Layer" fill-rule="evenodd" class="s1" d="m95 51h8v44h-8z"/>
			<g id="Layer">
				<path id="Layer" class="s2" d="m82 23q0.1 0 0.2 0q0 0.1 0.1 0.1q0 0.1 0.1 0.1q0 0.1 0 0.2v12.2h-0.7v-12.2q0-0.1 0-0.2q0 0 0.1-0.1q0 0 0.1-0.1q0.1 0 0.1 0z"/>
				<path id="Layer" class="s1" d="m74.2 23.7h7.5v5.8h-7.5q-0.1 0-0.2-0.1q-0.1 0-0.1-0.1q-0.1-0.1-0.1-0.2q0.1-0.1 0.1-0.2l1.8-2q0.1-0.1 0.1-0.2q0 0 0-0.1q0 0 0-0.1q0-0.1-0.1-0.1l-1.8-2.1q-0.1-0.1-0.1-0.2q0-0.1 0.1-0.2q0-0.1 0.1-0.1q0.1-0.1 0.2-0.1z"/>
				<g id="Layer">
					<path id="b" class="s3" d="m67.6 53.6h28.8l7.2 39.6h-43.2z"/>
					<g id="Clip-Path" clip-path="url(#cp1)">
						<path id="Layer" class="s4" d="m66.6 83.1q0.1 0 0.2 0.1q0.2 0 0.3 0.1q0.1 0.1 0.1 0.3q0.1 0.1 0.1 0.2v2.2q0 0.1-0.1 0.3q0 0.1-0.1 0.2q-0.1 0.1-0.3 0.2q-0.1 0-0.2 0h-6.5q-0.2 0-0.3 0q-0.1-0.1-0.2-0.2q-0.1-0.1-0.2-0.2q0-0.2 0-0.3v-2.2q0-0.1 0-0.2q0.1-0.2 0.2-0.3q0.1-0.1 0.2-0.1q0.1-0.1 0.3-0.1zm37.8-1.1q0.1 0 0.3 0.1q0.1 0 0.2 0.2q0.1 0.1 0.1 0.2q0.1 0.1 0.1 0.3v2.1q0 0.2-0.1 0.3q0 0.1-0.1 0.2q-0.1 0.1-0.2 0.2q-0.2 0-0.3 0h-6.5q-0.1 0-0.3 0q-0.1-0.1-0.2-0.2q-0.1-0.1-0.2-0.2q0-0.1 0-0.3v-2.1q0-0.2 0-0.3q0.1-0.1 0.2-0.2q0.1-0.2 0.2-0.2q0.2-0.1 0.3-0.1zm-40.7-3.6q0.2 0 0.3 0.1q0.1 0 0.2 0.2q0.1 0.1 0.2 0.2q0 0.1 0 0.3v2.1q0 0.2 0 0.3q-0.1 0.1-0.2 0.2q-0.1 0.1-0.2 0.2q-0.1 0-0.3 0h-6.5q-0.1 0-0.2 0q-0.2-0.1-0.3-0.2q-0.1-0.1-0.1-0.2q-0.1-0.1-0.1-0.3v-2.1q0-0.2 0.1-0.3q0-0.1 0.1-0.2q0.1-0.2 0.3-0.2q0.1-0.1 0.2-0.1zm41.4-8.2q0.2 0 0.3 0q0.1 0.1 0.2 0.2q0.2 0.1 0.2 0.2q0.1 0.1 0.1 0.3v2.1q0 0.2-0.1 0.3q0 0.1-0.2 0.2q-0.1 0.2-0.2 0.2q-0.1 0.1-0.3 0.1h-6.4q-0.2 0-0.3-0.1q-0.1 0-0.2-0.2q-0.2-0.1-0.2-0.2q-0.1-0.1-0.1-0.3v-2.1q0-0.2 0.1-0.3q0-0.1 0.2-0.2q0.1-0.1 0.2-0.2q0.1 0 0.3 0zm-34.2-11.9q0.1 0 0.2 0q0.2 0.1 0.3 0.2q0.1 0.1 0.1 0.2q0.1 0.2 0.1 0.3v2.2q0 0.1-0.1 0.2q0 0.2-0.1 0.3q-0.1 0.1-0.3 0.1q-0.1 0.1-0.2 0.1h-6.5q-0.2 0-0.3-0.1q-0.1 0-0.2-0.1q-0.1-0.1-0.2-0.3q0-0.1 0-0.2v-2.2q0-0.1 0-0.3q0.1-0.1 0.2-0.2q0.1-0.1 0.2-0.2q0.1 0 0.3 0z"/>
					</g>
				</g>
				<path id="Layer" class="s2" d="m59.7 92.8h44.7q0.1 0 0.2 0.1q0.2 0 0.3 0.2q0.1 0.1 0.1 0.2q0.1 0.1 0.1 0.3v1.4h-46.1v-1.4q0-0.2 0.1-0.3q0-0.1 0.1-0.2q0.1-0.2 0.2-0.2q0.2-0.1 0.3-0.1z"/>
				<path id="Layer" class="s5" d="m82 64.8c1.7 0 3.4 0.5 4.7 1.6c1.3 1 2.3 2.5 2.7 4.1c0.4 1.6 0.2 3.3-0.4 4.9c-0.7 1.5-1.9 2.8-3.4 3.6l4 16h-15.1l4-16c-1.5-0.8-2.7-2.1-3.4-3.6c-0.7-1.6-0.8-3.3-0.4-4.9c0.4-1.7 1.4-3.1 2.7-4.1c1.3-1.1 3-1.6 4.6-1.6z"/>
				<path id="Layer" class="s2" d="m64.8 47.5h34.5l-2.9 6.1h-28.8z"/>
				<path id="Layer" class="s3" d="m72.3 35.6q0.2 0 0.3 0.1q0.1 0 0.2 0.1q0.1 0.1 0.2 0.2q0 0.2 0 0.3v6.5h5.1v-6.5q0-0.1 0-0.3q0.1-0.1 0.2-0.2q0.1-0.1 0.2-0.1q0.2-0.1 0.3-0.1h6.5q0.1 0 0.3 0.1q0.1 0 0.2 0.1q0.1 0.1 0.1 0.2q0.1 0.2 0.1 0.3v6.5h5v-6.5q0-0.1 0.1-0.3q0-0.1 0.2-0.2q0.1-0.1 0.2-0.1q0.1-0.1 0.3-0.1h6.8q0.1 0 0.3 0.1q0.1 0 0.2 0.1q0.1 0.1 0.2 0.2q0 0.2 0 0.3v11.2h-34.5v-11.2q0-0.1 0-0.3q0.1-0.1 0.2-0.2q0.1-0.1 0.2-0.1q0.1-0.1 0.3-0.1z"/>
			</g>
			<path id="Layer" fill-rule="evenodd" class="s6" d="m21 28h42v68h-42z"/>
			<path id="Layer" fill-rule="evenodd" class="s7" d="m39 28h24v68h-24z"/>
			<path id="Layer" fill-rule="evenodd" class="s6" d="m63 88v2h-24v-2zm0-6v2h-24v-2zm0-6v2h-24v-2zm0-6v2h-24v-2zm0-6v2h-24v-2zm0-6v2h-24v-2zm0-6v2h-24v-2zm0-6v2h-24v-2zm0-6v2h-24v-2zm0-6v2h-24v-2zm-35-14h30v8h-30zm23-4h-17v4h17z"/>
			<path id="Layer" fill-rule="evenodd" class="s0" d="m18 52h16v43h-16z"/>
			<path id="Layer" fill-rule="evenodd" class="s1" d="m18 52h12v43h-12z"/>
			<path id="Layer" fill-rule="evenodd" class="s8" d="m111 96v-15h13v6h4v9zm-101-9h13v9h-13z"/>
			<path id="Layer" class="s9" d="m9 95.5c0-0.3 0.2-0.5 0.5-0.5h119c0.3 0 0.5 0.2 0.5 0.5c0 0.3-0.2 0.5-0.5 0.5h-119c-0.3 0-0.5-0.2-0.5-0.5z"/>
			<circle id="Layer" class="s10" cx="117" cy="8" r="6"/>
		</g>
	</g>
</svg>